# xmcd
#
# Track frame offsets: 
#        150
#        17730
#        36497
#        55657
#        86230
#        104255
#        126312
#        156247
#        178770
#        210710
#        233070
#        251512
#        271057
#        305625
#        320157
#
# Disc length: 4583 seconds
#
# Revision: 5
# Processed by: cddbd v1.5.2PL0 Copyright (c) Steve Scherf et al.
# Submitted via: ExactAudioCopy v0.99pb5
#
DISCID=d611e50f
DTITLE=Gary Moore - Ballads and Blues 1982 - 1994 ( (+ includes bonus tr
DTITLE=ack recorded 1995)
DYEAR=1995
DGENRE=Rock
TTITLE0=Always Gonna Love You
TTITLE1=Still Got The Blues
TTITLE2=Empty Rooms
TTITLE3=Parisienne Walkways
TTITLE4=One Day
TTITLE5=Separate Ways
TTITLE6=Story Of The Blues
TTITLE7=Crying In The Shadows
TTITLE8=With Love (Remember)
TTITLE9=Midnight Blues
TTITLE10=Falling In Love With You
TTITLE11=Jumpin' At Shadows
TTITLE12=Blues For Narada
TTITLE13=Johnny Boy
TTITLE14=Love That Burns
EXTD=
EXTT0=
EXTT1=
EXTT2=
EXTT3=
EXTT4=
EXTT5=
EXTT6=
EXTT7=
EXTT8=
EXTT9=
EXTT10=
EXTT11=
EXTT12=
EXTT13=
EXTT14=
PLAYORDER=
